<?xml version="1.0" encoding="utf-8"?>
<!-- Generator: Adobe Illustrator 27.2.0, SVG Export Plug-In . SVG Version: 6.00 Build 0)  -->
<svg version="1.1" xmlns="http://www.w3.org/2000/svg" xmlns:xlink="http://www.w3.org/1999/xlink" x="0px" y="0px"
	 viewBox="0 0 5000 5000" style="enable-background:new 0 0 5000 5000;" xml:space="preserve">
<style type="text/css">
	.st0{display:none;}
	.st1{display:inline;}
	.st2{fill:#FBF5EA;}
	.st3{fill:#D4D6D6;}
	.st4{fill:#FDF2DD;}
	.st5{display:inline;fill:none;stroke:#000000;stroke-width:11;stroke-miterlimit:10;}
	.st6{fill:#F8AD3B;stroke:#000000;stroke-width:14;stroke-linecap:round;stroke-linejoin:bevel;stroke-miterlimit:10;}
	.st7{fill:#F7931E;}
	.st8{opacity:0.4;fill:#E1645D;}
	.st9{fill:none;stroke:#000000;stroke-width:27;stroke-linecap:round;stroke-miterlimit:10;}
	.st10{fill:none;stroke:#000000;stroke-width:25;stroke-linecap:round;stroke-miterlimit:10;}
	.st11{fill:none;stroke:#000000;stroke-width:20;stroke-linecap:round;stroke-miterlimit:10;}
	.st12{fill:#EE5A24;stroke:#000000;stroke-width:20;stroke-linecap:round;stroke-miterlimit:10;}
	.st13{fill:#EE5A24;stroke:#000000;stroke-width:13;stroke-miterlimit:10;}
	.st14{fill:none;stroke:#ECE6A5;stroke-width:21;stroke-linecap:round;stroke-miterlimit:10;}
	.st15{fill:none;stroke:#ECE6A5;stroke-width:44;stroke-linecap:round;stroke-miterlimit:10;}
	.st16{fill:none;stroke:#ECE6A5;stroke-width:36;stroke-linecap:round;stroke-miterlimit:10;}
	.st17{fill:none;stroke:#000000;stroke-width:18;stroke-linecap:round;stroke-miterlimit:10;}
	.st18{fill:none;stroke:#000000;stroke-width:21;stroke-linecap:round;stroke-miterlimit:10;}
	.st19{fill:none;stroke:#000000;stroke-width:18;stroke-linejoin:round;stroke-miterlimit:10;}
</style>
<g id="Layer_1" class="st0">
	<g class="st1">
		<g>
			<g>
				<path class="st2" d="M2824.32,4177.44c-724.68,0-1449.37-0.07-2174.05,0.4c-18.11,0.01-24.29-1.85-24.27-22.95
					c0.72-1079.24,0.7-2158.48,0.09-3237.72c-0.01-19.09,4.44-21.97,22.52-21.97c1451.18,0.52,2902.35,0.55,4353.53-0.21
					c21.88-0.01,22.62,7.22,22.61,24.59c-0.37,1078.33-0.41,2156.67,0.24,3235c0.01,20.24-4.96,23.34-23.91,23.32
					C4275.5,4177.36,3549.91,4177.44,2824.32,4177.44z M3958.89,3047.41c-1.67-11.43,3.47-21.71,5.52-32.51
					c21.01-3.85,34.61-18.85,48.09-33.23c32.37-34.56,25.88-65.28-11.43-85.84c-35.82-19.74-72.2-38.46-109.42-58.2
					c16.11-11.98,31.48-22.28,48.99-30.24c49.76-22.63,99.2-46.09,147.89-70.93c19.97-10.19,38.58-24.73,43.78-48.53
					c5.04-23.1-11.98-49.07-42.97-60.52c-22.16-8.19-29.54-20.75-27.33-42.73c1.26-12.55,1.04-25.39,0.08-37.99
					c-1.39-18.32,5.6-29.31,21.99-38.94c22.33-13.12,39.27-32.77,37.51-61.32c-1.67-27.1-22.09-41.8-43.36-50.91
					c-53.2-22.81-101.48-54.33-150.76-83.59c-155.08-92.1-309.88-184.61-466.47-274.16c-96.73-55.32-191.61-113.86-288.33-169.2
					c-67.73-38.75-133.54-80.48-199.92-121.38c-73.92-45.54-142.9-100.03-225.81-129.54c-22.45-7.99-47.57-16.09-70.38-13.7
					c-35.14,3.68-69.63,14.72-101.94,31.45c-72.52,37.57-145.92,73.46-218.57,110.77c-89.56,45.99-178.96,92.31-268.01,139.29
					c-75.55,39.85-150.43,80.95-225.73,121.28c-68,36.42-112.38,92.83-143.07,162.55c-20.25,46.01-24.87,94.8-33.06,143.18
					c-5.61,33.11,4.42,63.79,15.5,93.54c16.12,43.3,56.49,63.13,92.07,86.85c6.84,4.56,15.8,7.25,16.09,16.29
					c0.3,9.26-8.14,12.8-15.58,16.63c-27.3,14.05-51.27,33.17-75.27,51.91c-42.77,33.38-79.39,71.24-100.1,123.76
					c-10.26,26.02-9.13,52.92-16.73,78.42c-18.75,62.93-4.2,120.46,27.72,174.45c25.95,43.88,72.53,63.49,114.39,87.23
					c133.61,75.77,263.84,157.26,398.03,232.14c112.9,63,225.68,126.14,339.21,188.01c84.74,46.17,167.86,95.37,250.86,144.65
					c81.82,48.58,163.27,98.06,249.85,137.44c25.47,11.58,53.98,22.09,87.88,7.96c54.09-22.54,105.8-49.07,157.29-76.37
					c47.48-25.17,47.08-25.92,87.05,6.68c21.11,17.22,30.6,15.16,43.23-7.7c13.67-24.74,19.53-56.22,53.88-63.87
					c18.4-4.1,36.93-6.98,55.51-9.96c15.2-2.44,36.48-6.35,42.41-16.79c6.7-11.79-18.04-15.54-24.47-27.16
					c-1.28-2.32-3.19-4.57-5.35-6.06c-13.76-9.51-10.97-14.15,2.99-21.97c58.51-32.75,116.2-66.96,174.09-100.81
					c74.55-43.59,149.17-87.07,223.44-131.13c45.61-27.06,91.29-54.08,135.66-83.08c33.14-21.65,38.12-49.45,18.17-75.56
					c-18.44-24.13-44.79-19.21-69.58-20.6c-5.87-15.76-5.93-32.19-5.67-48.66C3958.8,3061.6,3958.84,3054.5,3958.89,3047.41z"/>
				<path class="st3" d="M3964.41,3117.35c24.79,1.41,51.15-3.52,69.58,20.61c19.94,26.1,14.96,53.9-18.17,75.56
					c-44.37,28.99-90.06,56.02-135.66,83.08c-74.27,44.06-148.89,87.54-223.44,131.13c-57.89,33.85-115.58,68.06-174.09,100.81
					c-13.96,7.82-16.75,12.46-2.99,21.97c2.16,1.5,4.07,3.75,5.35,6.06c6.43,11.63,31.16,15.37,24.47,27.16
					c-5.93,10.44-27.21,14.35-42.41,16.79c-18.58,2.98-37.12,5.86-55.51,9.96c-34.36,7.65-40.21,39.12-53.88,63.87
					c-12.63,22.86-22.12,24.92-43.23,7.7c-39.96-32.59-39.57-31.85-87.05-6.68c-51.48,27.3-103.2,53.83-157.29,76.37
					c-33.9,14.13-62.41,3.62-87.88-7.96c-86.58-39.38-168.03-88.86-249.85-137.44c-83-49.28-166.12-98.48-250.86-144.65
					c-113.53-61.86-226.32-125.01-339.21-188.01c-134.19-74.88-264.42-156.36-398.03-232.14c-41.86-23.74-88.44-43.34-114.39-87.23
					c-31.93-53.99-46.48-111.52-27.72-174.45c7.6-25.5,6.47-52.4,16.73-78.42c20.71-52.53,57.33-90.38,100.1-123.76
					c24-18.74,47.97-37.86,75.27-51.91c7.44-3.83,15.89-7.37,15.58-16.63c-0.3-9.05-9.25-11.73-16.09-16.29
					c-35.58-23.73-75.94-43.55-92.07-86.85c-11.08-29.75-21.1-60.43-15.5-93.54c8.19-48.38,12.81-97.17,33.06-143.18
					c30.69-69.73,75.07-126.14,143.07-162.55c75.3-40.33,150.18-81.43,225.73-121.28c89.05-46.97,178.45-93.29,268.01-139.29
					c72.66-37.31,146.05-73.2,218.57-110.77c32.3-16.73,66.8-27.78,101.94-31.45c22.8-2.39,47.93,5.71,70.38,13.7
					c82.92,29.51,151.9,84,225.81,129.54c66.38,40.9,132.19,82.63,199.92,121.38c96.72,55.33,191.6,113.88,288.33,169.2
					c156.58,89.55,311.39,182.07,466.47,274.16c49.28,29.27,97.56,60.78,150.76,83.59c21.27,9.12,41.69,23.82,43.36,50.91
					c1.76,28.56-15.18,48.2-37.51,61.32c-16.39,9.63-23.38,20.63-21.99,38.94c0.96,12.6,1.18,25.44-0.08,37.99
					c-2.21,21.98,5.17,34.54,27.33,42.73c30.99,11.45,48.02,37.42,42.97,60.52c-5.2,23.8-23.8,38.34-43.78,48.53
					c-48.69,24.85-98.13,48.3-147.89,70.93c-17.51,7.96-32.87,18.26-48.99,30.24c37.22,19.74,73.61,38.46,109.42,58.2
					c37.3,20.56,43.8,51.28,11.43,85.84c-13.47,14.38-27.08,29.38-48.09,33.23c-7.3-3.68-14.59-7.36-21.88-11.03
					c3.71-13.19,15.71-15.93,26.02-21.37c44.52-23.47,45.59-46.33,3.45-72.92c-27.28-17.21-60.51-22.55-86.59-42.07
					c-19.59-14.66-36.22-14.44-58.18-1.05c-51.26,31.25-104.67,59-157.46,87.69c-103.41,56.21-206.63,112.79-310.65,167.86
					c-63.8,33.77-120.96,78.63-185.61,110.48c-38.47,18.95-82.63,21.38-119.1-0.16c-88.99-52.57-174.61-110.79-265.25-160.81
					c-116.27-64.16-232.69-128.08-347.95-194.02c-125.43-71.76-250.01-145.04-374.18-218.97
					c-65.63-39.08-129.82-80.62-194.16-121.82c-15.04-9.63-26.09-12.65-43.71-2.17c-30.33,18.03-59.56,37.37-87.14,59.05
					c-71.41,56.13-117.58,125.2-110.32,221.03c1.57,20.7,1.77,41.75-0.09,62.4c-2.03,22.57,7.88,38.42,23.89,51.37
					c27.2,21.99,53.44,45.78,82.99,64.12c105.52,65.5,211.49,130.34,318.77,192.91c87.62,51.1,176.66,99.91,266.32,147.38
					c110.46,58.49,219.02,120.34,327.53,182.24c111.74,63.73,224.17,126.43,328.72,202.01c32.63,23.59,67.49,22.73,100.24-0.95
					c46.74-33.81,93.88-67,145.64-92.72c19.41-9.64,17.6-19.79,5.1-32.97c-2.7-6.64-3.84-14.7-8.38-19.64
					c-15.15-16.48-31.96-31.11-51.12-43.22c-13.47-8.52-23.13-19.17-1.34-31.13c18.94-10.4,37.16-22.15,55.45-33.7
					c39.38-24.87,83.97-42.78,117.42-75.35c29.29-28.52,62.87-47.62,98.89-64.47c7.53-3.52,14.24-5.01,18.91,2.57
					c5.31,8.63-2.29,13.83-7.95,17.45c-24.28,15.55-48.36,31.65-73.88,44.94c-13.25,6.9-11.83,10.29-2.27,18.21
					c20.24,16.78,38.35,35.51,49.9,59.63c0.81,28.19,13.63,36.79,35.87,21.56c12.03-8.24,25-14.16,37.45-21.09
					c92.66-51.59,186.65-100.86,278.44-153.91c71.67-41.42,145.59-78.03,219.82-114.31c12.56-6.14,21.85-15.97,20.34-32.14
					c-1.47-15.74-11.97-20.57-25.4-23.21c-11.44-2.25-22.67-5.56-34-8.39C3959.07,3127.99,3958.43,3121.6,3964.41,3117.35z
					 M1719.02,2311.07c0,7.24-0.06,14.49,0.01,21.73c0.25,27.66-5.41,56.9,18.99,78.54c14.5,12.87,29.55,25.12,44.53,37.45
					c20.27,16.69,45.9,24.62,66.99,39.59c82.3,58.43,170.33,107.83,255.86,160.98c122.84,76.33,250.69,144.55,375.12,218.44
					c23.73,14.09,48.52,26.55,72.96,39.47c56.18,29.7,110.6,62.72,165.95,94.01c59.45,33.61,119.35,66.42,178.68,100.23
					c52.58,29.97,102.57,63.93,149.22,102.53c11.09,9.17,20.77,4.59,30.01-0.2c12.41-6.43,2.56-15.96,0.68-23.68
					c-2.71-11.12-10.37-20.01-10.8-32.84c-2.3-68.81,1.3-136.75,24.44-202.36c3.4-9.66,1.58-14.15-8.33-18.43
					c-61.06-26.36-119.97-57.04-179.21-87.26c-80.14-40.87-156.81-87.66-235.3-131.22c-70.58-39.18-138.32-83.87-207.81-125.02
					c-124.68-73.82-246.88-151.39-369.87-227.84c-61.31-38.11-126.26-70.89-188.26-108.3c-35.47-21.4-69.21-45.57-105.56-65.7
					c-7.15-3.96-24.43-9.23-14.37-23.62c8.06-11.53,20.49-7.82,31.52-1.11c18.36,11.16,36.93,21.96,55.47,32.81
					c80.08,46.83,160.27,93.46,240.23,140.48c61.92,36.4,123.53,73.33,185.35,109.91c60.2,35.62,120.6,70.89,180.7,106.67
					c67,39.87,133.32,80.89,200.74,120.03c71.38,41.43,143.63,81.36,215.63,121.7c68.06,38.13,136.5,75.5,209.76,103.13
					c8.93,3.37,16.48,4.1,25.85,0.29c49.71-20.22,100.17-38.61,148.42-62.34c10.72-5.27,26.72-10.26,31.9,0.29
					c6.79,13.81-11.23,17.94-20.42,22.77c-48.47,25.45-96.07,52.75-147.65,71.92c-6.89,2.56-18.76,2.6-17.95,13.47
					c1.86,24.94-13.07,46.2-12.16,71.53c2.1,58.51,0.45,117.16,0.54,175.75c0.05,33.94,11.74,39.54,43.17,23.85
					c58.52-29.22,111.86-67.18,169.79-97.62c93.2-48.97,183.93-102.62,276.32-153.16c59.83-32.72,121.34-62.39,181.07-95.29
					c77.06-42.44,154.69-83.64,234.16-121.42c25.12-11.94,49.1-26.45,72.84-41.02c5.9-3.62,14.79-9.54,9.74-19.79
					c-3.8-7.69-10.11-12.65-19.12-13.3c-9.14-0.66-17.14,0.83-25.73,5.63c-112.87,63.1-226.26,125.27-339.12,188.38
					c-123.16,68.86-245.95,138.38-368.82,207.78c-50.12,28.31-99.93,57.18-150.03,85.51c-26.64,15.06-40.43,8.16-40.82-20.46
					c-0.43-31.68,1.68-63.5-0.51-95.03c-2.06-29.63,9.83-50.62,32.55-66.74c21.32-15.12,42.62-30.58,65.37-43.31
					c102.76-57.45,205.5-114.97,309.28-170.52c81.64-43.7,165.46-83.27,245.85-129.41c86.28-49.51,182.21-81.38,261.75-143.49
					c12.26-9.57,27.61-15.1,26.08-34.02c-1.48-18.28-16.63-23.74-30.17-30.91c-80.27-42.52-160.74-84.7-240.48-128.2
					c-44.82-24.44-88.54-50.91-132.45-76.98c-44.51-26.43-89.36-52.15-134.7-77.21c-93.4-51.61-183.24-109.61-275.79-162.82
					c-107.86-62.01-214.61-125.82-320.78-190.64c-81.66-49.85-160.05-104.46-250.83-139.4c-38.56-14.84-64.52-17.16-101.48,3.59
					c-94.34,52.98-191.6,100.98-289.07,148.13c-86.16,41.68-171.29,85.23-255.66,130.29c-75.94,40.55-152.17,80.47-225.16,126.64
					c-42.32,26.77-69.99,63.3-91.84,105.39C1721.76,2206.61,1714.94,2258.12,1719.02,2311.07z M3211.83,3117.48
					c4.1-1.72,10.16-3.63,15.59-6.66c14.82-8.28,29.27-17.21,44.04-25.58c71.03-40.24,142.3-80.07,213.15-120.65
					c65.54-37.54,130.82-75.54,195.87-113.94c28.56-16.86,56.06-35.5,84.45-52.66c6.29-3.8,10.82-7.66,8.14-14.67
					c-4.33-11.35-12.29-2.93-18.21-1.67c-5.01,1.07-9.39,5.03-14.09,7.63c-41.63,22.99-83.5,45.54-124.84,69.02
					c-57.07,32.41-113.87,65.3-170.55,98.39c-49.41,28.85-98.6,58.09-147.69,87.49c-29.95,17.94-59.55,36.49-89.24,54.87
					c-4.46,2.76-10.22,5.1-8.98,11.98C3200.47,3116.61,3205.1,3117.3,3211.83,3117.48z M4043.67,2575.4
					c-5.38-9.27-14.41-7.83-20.71-3.6c-19.45,13.03-41.48,20.49-62.01,31.06c-52.65,27.11-105.14,54.57-157.19,82.82
					c-29.98,16.27-58.99,34.33-88.39,51.65c-4.53,2.67-10.79,5.13-8.62,11.77c2.16,6.6,9.11,5.47,13.92,4.4
					c8.71-1.95,17.53-4.5,25.52-8.39c35.29-17.16,70.96-33.71,105.28-52.68c59.65-32.96,118.39-67.56,177.53-101.44
					C4035.36,2587.34,4041.26,2583.37,4043.67,2575.4z M3603.84,2823.35c8.05,0.56,77.64-39.54,81.18-46.93
					c2.04-4.26,2.79-9.23-0.65-12.6c-2.11-2.07-6.92-3.54-9.56-2.6c-27.32,9.74-52.54,23.54-75.44,41.34
					c-4.54,3.53-5.04,9.35-3.52,14.98C3596.95,2821.61,3599.94,2823.11,3603.84,2823.35z"/>
				<path class="st4" d="M3942.53,3003.86c7.29,3.68,14.59,7.35,21.88,11.03c-2.06,10.8-7.2,21.08-5.52,32.51
					c-38.02,0.99-66.1,26.99-96.85,43.04c-69.57,36.31-134.96,80.62-202.01,121.75c-7.01,4.3-20.64,5.53-14.78,17.92
					c6.94,14.69,17.3,2.78,24.93-0.63c64.97-28.97,124.82-67.1,185.64-103.63c33.59-20.17,62.89-48.49,102.92-57.16
					c-0.27,16.47-0.2,32.9,5.67,48.65c-5.99,4.25-5.35,10.64-5.42,16.8c2.59,34.24-27.92,39.7-47.91,52.84
					c-25.18,16.55-52.91,29.16-78.89,44.57c-48.99,29.08-97.32,59.25-146.26,88.4c-52.3,31.15-104.23,63.05-157.78,91.92
					c-33.71,18.18-62.73,45.52-101.68,53.76c-11.55-24.12-29.66-42.84-49.9-59.63c-9.56-7.92-10.98-11.32,2.27-18.21
					c25.52-13.28,49.6-29.38,73.88-44.94c5.66-3.62,13.26-8.82,7.95-17.45c-4.67-7.59-11.38-6.09-18.91-2.57
					c-36.02,16.85-69.6,35.95-98.89,64.47c-33.45,32.57-78.04,50.49-117.42,75.35c-18.29,11.55-36.51,23.3-55.45,33.7
					c-21.79,11.96-12.13,22.62,1.34,31.13c19.16,12.11,35.97,26.75,51.12,43.22c4.54,4.94,5.68,13.01,8.38,19.65
					c-10.31,1.14-18.18,7.19-26.72,12.37c-31.43,19.04-62.87,38.12-95.11,55.71c-12.18,6.64-22.63,12.03-32.67-10.1
					c-14.67-32.33-5.97-65.48-13.46-97.7c-9.71-41.8,13.44-69.28,48.42-90.18c39.56-23.65,79-47.53,118.41-71.37
					c84.83-51.31,171.71-98.79,258.77-146.01c103.93-56.38,208.06-112.4,312.33-168.14
					C3847.42,3050.04,3893.04,3023.06,3942.53,3003.86z"/>
				<path class="st3" d="M3958.75,3068.7c-40.03,8.67-69.33,36.99-102.92,57.16c-60.82,36.53-120.67,74.65-185.64,103.63
					c-7.63,3.4-17.99,15.32-24.93,0.63c-5.85-12.39,7.77-13.62,14.78-17.92c67.05-41.13,132.44-85.44,202.01-121.75
					c30.75-16.05,58.83-42.05,96.85-43.04C3958.84,3054.5,3958.8,3061.6,3958.75,3068.7z"/>
				<path class="st4" d="M1719.02,2311.07c-4.08-52.95,2.74-104.46,27.28-151.73c21.86-42.09,49.53-78.62,91.84-105.39
					c72.98-46.18,149.21-86.09,225.16-126.64c84.37-45.05,169.51-88.61,255.66-130.29c97.47-47.15,194.73-95.15,289.07-148.13
					c36.96-20.75,62.91-18.44,101.48-3.59c90.78,34.94,169.18,89.55,250.83,139.4c106.17,64.82,212.92,128.63,320.78,190.64
					c92.55,53.21,182.38,111.22,275.79,162.82c45.35,25.06,90.19,50.77,134.7,77.21c43.91,26.07,87.63,52.54,132.45,76.98
					c79.75,43.49,160.21,85.67,240.48,128.2c13.54,7.17,28.69,12.62,30.17,30.91c1.53,18.92-13.83,24.45-26.08,34.02
					c-79.53,62.11-175.46,93.97-261.75,143.49c-80.39,46.13-164.21,85.7-245.85,129.41c-103.78,55.56-206.52,113.07-309.28,170.52
					c-22.76,12.72-44.06,28.18-65.37,43.31c-22.71,16.11-34.61,37.11-32.55,66.74c2.19,31.53,0.09,63.35,0.51,95.03
					c0.39,28.62,14.18,35.52,40.82,20.46c50.11-28.33,99.91-57.2,150.03-85.51c122.86-69.39,245.66-138.91,368.82-207.78
					c112.86-63.11,226.26-125.27,339.12-188.38c8.59-4.8,16.6-6.29,25.73-5.63c9.01,0.65,15.32,5.61,19.12,13.3
					c5.05,10.25-3.84,16.17-9.74,19.79c-23.74,14.57-47.72,29.08-72.84,41.02c-79.48,37.79-157.1,78.99-234.16,121.42
					c-59.73,32.89-121.24,62.56-181.07,95.29c-92.39,50.54-183.12,104.19-276.32,153.16c-57.93,30.44-111.27,68.4-169.79,97.62
					c-31.43,15.69-43.12,10.1-43.17-23.85c-0.08-58.59,1.56-117.23-0.54-175.75c-0.91-25.33,14.02-46.59,12.16-71.53
					c-0.81-10.87,11.06-10.91,17.95-13.47c51.58-19.17,99.18-46.48,147.65-71.92c9.2-4.83,27.21-8.96,20.42-22.77
					c-5.19-10.55-21.19-5.56-31.9-0.29c-48.25,23.72-98.71,42.12-148.42,62.34c-9.37,3.81-16.92,3.07-25.85-0.29
					c-73.26-27.62-141.7-65-209.76-103.13c-72.01-40.34-144.26-80.27-215.63-121.7c-67.42-39.13-133.75-80.15-200.74-120.03
					c-60.11-35.77-120.51-71.05-180.7-106.67c-61.82-36.58-123.43-73.5-185.35-109.91c-79.97-47.01-160.16-93.65-240.23-140.48
					c-18.54-10.85-37.12-21.65-55.47-32.81c-11.03-6.71-23.47-10.42-31.52,1.11c-10.05,14.39,7.22,19.66,14.37,23.62
					c36.35,20.14,70.09,44.3,105.56,65.7c62,37.41,126.95,70.19,188.26,108.3c122.99,76.45,245.19,154.02,369.87,227.84
					c69.49,41.14,137.23,85.84,207.81,125.02c78.49,43.56,155.16,90.35,235.3,131.22c59.25,30.22,118.16,60.9,179.21,87.26
					c9.92,4.28,11.74,8.78,8.33,18.43c-23.13,65.62-26.74,133.55-24.44,202.36c0.43,12.83,8.09,21.72,10.8,32.84
					c1.88,7.72,11.73,17.25-0.68,23.68c-9.24,4.79-18.92,9.38-30.01,0.2c-46.65-38.59-96.63-72.56-149.22-102.53
					c-59.33-33.82-119.23-66.63-178.68-100.23c-55.35-31.29-109.77-64.31-165.95-94.01c-24.44-12.92-49.24-25.38-72.96-39.47
					c-124.44-73.89-252.28-142.11-375.12-218.44c-85.53-53.15-173.57-102.56-255.86-160.98c-21.1-14.98-46.72-22.9-66.99-39.59
					c-14.97-12.33-30.02-24.58-44.53-37.45c-24.39-21.65-18.74-50.88-18.99-78.54C1718.96,2325.56,1719.02,2318.31,1719.02,2311.07z
					 M4061.94,2442.05c-4.39-13.83-16.11-4.68-22.68-1.55c-62.41,29.71-124.58,59.94-186.4,90.85
					c-81.88,40.93-163.76,81.89-244.96,124.15c-79.66,41.47-158.5,84.53-237.62,127.04c-9.22,4.95-18.04,12.52-13.34,23.6
					c6.27,14.79,18.38,4.23,25.37,0.92c73.03-34.63,145.94-69.55,218.09-105.95c68.92-34.77,137.17-70.88,205.23-107.32
					c81.59-43.68,162.66-88.34,244-132.5C4056.34,2457.64,4061.88,2453.47,4061.94,2442.05z M1991.99,2511.54
					c-5.37,41.74,20.49,53.76,41.74,67.48c28.91,18.66,43.9,10.83,48.97-23.7c1.3-8.86,0.33-18.03,0.75-27.04
					c1.88-40.36-4.89-81.29,7.91-120.92c3.64-11.28-1.69-19.55-9.63-26c-12.56-10.2-25.55-19.93-38.92-29.05
					c-19.48-13.28-28.06-6.19-36.62,15.76C1986.75,2417.88,2005.77,2470.64,1991.99,2511.54z"/>
				<path class="st2" d="M3942.53,3003.86c-49.49,19.2-95.11,46.18-141.72,71.1c-104.28,55.73-208.4,111.76-312.33,168.14
					c-87.06,47.23-173.94,94.7-258.77,146.01c-39.41,23.84-78.85,47.72-118.41,71.37c-34.98,20.91-58.13,48.38-48.42,90.18
					c7.48,32.22-1.22,65.37,13.46,97.7c10.04,22.13,20.5,16.74,32.67,10.1c32.24-17.59,63.69-36.67,95.11-55.71
					c8.55-5.18,16.41-11.23,26.72-12.37c12.51,13.17,14.32,23.32-5.09,32.97c-51.77,25.72-98.9,58.91-145.64,92.72
					c-32.75,23.69-67.61,24.54-100.24,0.95c-104.55-75.58-216.98-138.28-328.72-202.01c-108.52-61.9-217.07-123.75-327.53-182.24
					c-89.66-47.47-178.7-96.27-266.32-147.38c-107.28-62.57-213.25-127.4-318.77-192.91c-29.55-18.35-55.79-42.14-82.99-64.12
					c-16.01-12.95-25.92-28.8-23.89-51.37c1.85-20.65,1.66-41.7,0.09-62.4c-7.26-95.83,38.9-164.89,110.32-221.03
					c27.58-21.67,56.81-41.02,87.14-59.05c17.62-10.47,28.67-7.46,43.71,2.17c64.34,41.2,128.53,82.74,194.16,121.82
					c124.17,73.93,248.74,147.21,374.18,218.97c115.26,65.94,231.68,129.86,347.95,194.02c90.65,50.02,176.26,108.24,265.25,160.81
					c36.46,21.54,80.63,19.11,119.1,0.16c64.65-31.85,121.81-76.71,185.61-110.48c104.02-55.06,207.24-111.65,310.65-167.86
					c52.79-28.7,106.2-56.45,157.46-87.69c21.96-13.38,38.58-13.61,58.18,1.05c26.08,19.52,59.31,24.86,86.59,42.07
					c42.14,26.59,41.06,49.46-3.45,72.92C3958.24,2987.93,3946.25,2990.67,3942.53,3003.86z M3033.04,3433.24
					c15.69,1.88,34.51-1.74,52.8-11.79c26-14.28,53.14-26.45,79.45-40.19c128.92-67.35,259.1-132.45,386.15-203.17
					c106.9-59.51,214.73-117.34,321.29-177.47c28.97-16.35,58.65-31.43,87.84-47.4c9.09-4.98,17.87-12.22,13.22-23.61
					c-5.52-13.5-16.04-3.8-23.05-1.19c-14.25,5.31-27.8,12.64-41.31,19.74c-88.28,46.38-176.39,93.1-264.73,139.36
					c-105.78,55.39-211.92,110.08-317.56,165.75c-84.18,44.36-167.72,89.96-251.81,134.51c-21.08,11.17-44.86,19.79-67.74,10.97
					c-31.46-12.13-63.97-20.4-95.32-34.19c-88.28-38.83-172.34-85.2-256.16-132.01c-77.69-43.38-152.76-91.42-229.16-137.13
					c-7.81-4.67-17.58-15.84-25.72-4.65c-7.32,10.07,2.45,17.37,11.44,23.32c23.28,15.43,45.64,32.24,69.09,47.4
					c123.3,79.7,248.48,156.48,381.12,219.66C2914.96,3405.96,2967.23,3435.04,3033.04,3433.24z M1705.07,2663.61
					c-5.28-0.14-9.14,2.01-10.93,6.64c-3.81,9.83,2.7,15.74,9.49,20.14c51.85,33.68,103.36,67.93,156.05,100.25
					c93.82,57.54,188.12,114.31,282.74,170.52c63.26,37.58,127.17,74.11,191.47,109.87c10.33,5.74,25.76,22.64,34.9,8.3
					c12.22-19.17-10.88-27.97-23.08-35.82c-74.48-47.91-148.62-96.52-225.08-141.12c-123.33-71.96-244.01-148.51-370.44-215.12
					C1735.1,2679.31,1719.98,2671.42,1705.07,2663.61z M2806.19,3474.96c0.04,0,0.07,0,0.11,0c0-17.12-0.56-34.25,0.13-51.34
					c1.01-25.2-10.9-43.2-31.04-56c-17-10.8-36.21-2.81-39,16.98c-6.54,46.36-7.76,93.15-5.74,139.88
					c0.82,18.95,26.24,39.96,45.08,38.43c23.84-1.93,31.19-17.53,30.55-39.31C2805.81,3507.4,2806.19,3491.18,2806.19,3474.96z
					 M2991.47,3584.31c0,24.32,0.01,48.63,0,72.95c-0.01,16.68,5.31,31.93,13.68,45.94c3.67,6.15,10.28,11.41,18.05,8.22
					c7.16-2.94,5.46-9.89,4.32-16.42c-9.43-54.21-9.75-108.94-9.09-163.73c0.15-12.61,0.18-25.22-0.11-37.82
					c-0.15-6.55-1.94-13.12-9.54-14.3c-8.02-1.24-9.98,5.94-13.12,11.29c-4.34,7.41-4.14,15.51-4.14,23.62
					C2991.5,3537.48,2991.51,3560.89,2991.47,3584.31z"/>
				<path class="st2" d="M3426.48,3465.66c38.95-8.25,67.97-35.58,101.68-53.76c53.55-28.87,105.48-60.77,157.78-91.92
					c48.94-29.15,97.27-59.33,146.26-88.4c25.97-15.42,53.71-28.02,78.89-44.57c20-13.15,50.51-18.6,47.91-52.84
					c11.32,2.84,22.56,6.14,34,8.39c13.43,2.64,23.93,7.48,25.4,23.21c1.51,16.17-7.78,26-20.34,32.14
					c-74.23,36.27-148.15,72.89-219.82,114.31c-91.8,53.06-185.79,102.32-278.44,153.91c-12.45,6.93-25.42,12.86-37.45,21.09
					C3440.1,3502.45,3427.29,3493.85,3426.48,3465.66z"/>
				<path class="st2" d="M3211.83,3117.48c-6.73-0.18-11.36-0.87-12.37-6.46c-1.24-6.88,4.52-9.22,8.98-11.98
					c29.69-18.38,59.29-36.92,89.24-54.87c49.09-29.4,98.27-58.64,147.69-87.49c56.68-33.09,113.48-65.98,170.55-98.39
					c41.35-23.48,83.22-46.04,124.84-69.02c4.7-2.6,9.08-6.55,14.09-7.63c5.91-1.27,13.87-9.69,18.21,1.67
					c2.68,7.01-1.85,10.87-8.14,14.67c-28.39,17.16-55.89,35.8-84.45,52.66c-65.04,38.4-130.32,76.4-195.87,113.94
					c-70.84,40.58-142.11,80.41-213.15,120.65c-14.77,8.37-29.22,17.29-44.04,25.58
					C3221.99,3113.85,3215.93,3115.76,3211.83,3117.48z"/>
				<path class="st2" d="M4043.67,2575.4c-2.4,7.97-8.3,11.94-14.66,15.59c-59.14,33.88-117.88,68.47-177.53,101.44
					c-34.32,18.97-69.99,35.51-105.28,52.68c-8,3.89-16.81,6.44-25.52,8.39c-4.82,1.08-11.77,2.2-13.92-4.4
					c-2.17-6.64,4.1-9.1,8.62-11.77c29.4-17.32,58.41-35.38,88.39-51.65c52.05-28.25,104.53-55.71,157.19-82.82
					c20.53-10.57,42.56-18.03,62.01-31.06C4029.26,2567.57,4038.29,2566.13,4043.67,2575.4z"/>
				<path class="st2" d="M3603.86,2823.32c-3.92-0.21-6.91-1.71-8.01-5.78c-1.52-5.64-1.02-11.45,3.52-14.98
					c22.9-17.8,48.12-31.6,75.44-41.34c2.64-0.94,7.44,0.53,9.56,2.6c3.44,3.37,2.68,8.34,0.65,12.6
					C3681.49,2783.81,3611.89,2823.91,3603.86,2823.32z"/>
				<path class="st3" d="M4061.94,2442.05c-0.07,11.43-5.61,15.59-12.31,19.23c-81.34,44.16-162.4,88.82-244,132.5
					c-68.06,36.43-136.31,72.55-205.23,107.32c-72.15,36.4-145.07,71.32-218.09,105.95c-6.99,3.31-19.09,13.87-25.37-0.92
					c-4.7-11.08,4.12-18.64,13.34-23.6c79.12-42.5,157.95-85.57,237.62-127.04c81.2-42.26,163.08-83.22,244.96-124.15
					c61.83-30.91,123.99-61.14,186.4-90.85C4045.83,2437.36,4057.55,2428.22,4061.94,2442.05z"/>
				<path class="st3" d="M1991.99,2511.54c13.78-40.89-5.24-93.66,14.19-143.47c8.57-21.95,17.15-29.05,36.62-15.76
					c13.37,9.12,26.36,18.85,38.92,29.05c7.95,6.45,13.28,14.72,9.63,26c-12.8,39.63-6.03,80.56-7.91,120.92
					c-0.42,9.01,0.55,18.18-0.75,27.04c-5.06,34.53-20.05,42.36-48.97,23.7C2012.48,2565.3,1986.62,2553.28,1991.99,2511.54z"/>
				<path class="st3" d="M3033.04,3433.24c-65.81,1.8-118.08-27.28-170.16-52.09c-132.64-63.17-257.82-139.95-381.12-219.66
					c-23.44-15.16-45.81-31.97-69.09-47.4c-8.99-5.96-18.76-13.26-11.44-23.32c8.13-11.19,17.9-0.02,25.72,4.65
					c76.4,45.71,151.47,93.75,229.16,137.13c83.82,46.8,167.88,93.18,256.16,132.01c31.36,13.79,63.86,22.07,95.32,34.19
					c22.88,8.82,46.66,0.19,67.74-10.97c84.09-44.55,167.62-90.14,251.81-134.51c105.63-55.67,211.78-110.36,317.56-165.75
					c88.34-46.26,176.45-92.98,264.73-139.36c13.52-7.1,27.07-14.43,41.31-19.74c7.01-2.61,17.53-12.32,23.05,1.19
					c4.65,11.39-4.12,18.64-13.22,23.61c-29.19,15.97-58.87,31.05-87.84,47.4c-106.55,60.13-214.39,117.96-321.29,177.47
					c-127.04,70.73-257.23,135.82-386.15,203.17c-26.3,13.74-53.45,25.91-79.45,40.19
					C3067.55,3431.5,3048.73,3435.12,3033.04,3433.24z"/>
				<path class="st3" d="M1705.07,2663.61c14.91,7.81,30.04,15.7,45.13,23.66c126.43,66.62,247.11,143.17,370.44,215.12
					c76.46,44.61,150.6,93.22,225.08,141.12c12.2,7.85,35.3,16.65,23.08,35.82c-9.15,14.35-24.57-2.55-34.9-8.3
					c-64.3-35.76-128.21-72.3-191.47-109.87c-94.62-56.21-188.93-112.97-282.74-170.52c-52.69-32.32-104.2-66.57-156.05-100.25
					c-6.79-4.41-13.3-10.32-9.49-20.14C1695.93,2665.62,1699.78,2663.47,1705.07,2663.61z"/>
				<path class="st3" d="M2806.19,3474.96c0,16.22-0.38,32.44,0.09,48.64c0.64,21.77-6.71,37.38-30.55,39.31
					c-18.84,1.52-44.27-19.48-45.08-38.43c-2.02-46.73-0.79-93.52,5.74-139.88c2.79-19.79,22-27.78,39-16.98
					c20.14,12.8,32.05,30.8,31.04,56c-0.69,17.09-0.13,34.23-0.13,51.34C2806.27,3474.96,2806.23,3474.96,2806.19,3474.96z"/>
				<path class="st3" d="M2991.51,3584.31c0-23.42-0.01-46.83,0-70.25c0-8.11-0.19-16.21,4.14-23.62
					c3.13-5.35,5.1-12.54,13.12-11.29c7.6,1.18,9.39,7.75,9.54,14.3c0.3,12.6,0.26,25.22,0.11,37.82
					c-0.65,54.79-0.34,109.52,9.09,163.73c1.14,6.54,2.84,13.48-4.32,16.42c-7.77,3.19-14.38-2.07-18.05-8.22
					c-8.37-14.02-13.69-29.27-13.68-45.94C2991.48,3632.94,2991.47,3608.63,2991.51,3584.31z"/>
			</g>
		</g>
	</g>
	<path class="st5" d="M2408.42,2499.5"/>
</g>
<g id="Layer_7">
	<path class="st6" d="M4123.08,2652.89c4.04,9.8,3.35,20.92-1.87,30.15l-8.26,14.61c-6.16,10.89-15.63,19.54-27.05,24.67
		l-91.43,41.1l-854.55,457.3c-24.99,13.75-54.8,15.65-81.33,5.19l-152.11-85.49l-911-541l-222.18-134.56
		c-39.19-23.74-66.4-62.84-75.78-107.69c-0.05-0.24-0.1-0.47-0.15-0.71c-3.22-15.09,26.04-236.37,57.36-273.02l35.28-41.28
		c8.89-10.41,19.67-19.04,31.77-25.44c200.56-104.44,401.12-208.88,601.69-313.31c44.67-21.63,89.33-43.3,134-65
		c15.01-7.29,48.8-23.72,63.81-31.02c25.53-8.88,53.66-6.24,77.09,7.23l1365.62,784.97c21.33,12.26,34.49,34.99,34.49,59.6
		c-31.86,40.26-71.18,62.93-46.29,124c4.81,11.81,59.54,63.86,70.82,69.8"/>
	<g>
		<g>
			<path d="M2435.39,2217.4c45.67,42.2-62.31,71.69-97.89,94.32l-103.45-94.47l71.67-36.3c35.77-21.08,91.52,6.15,69.74,28.82
				C2391.05,2201.86,2419.28,2202.69,2435.39,2217.4z M2306.16,2204.22l24.83,22.67c13.39-6.18,36.13-16.92,22.16-28.85
				C2339.74,2185.66,2318.55,2197.26,2306.16,2204.22z M2411.58,2227.46c-16.28-16.38-49.53,4-66.05,12.71l30.97,28.28
				C2394.12,2259.43,2431.19,2245.64,2411.58,2227.46z"/>
			<path d="M2412.86,2200.22c-68.18-64.74,70.76-135.04,142.46-72.15C2622.79,2192.28,2484.11,2262.75,2412.86,2200.22z
				 M2533.32,2139.03c-49.63-43.53-146.09,5.18-98.79,50.04C2483.95,2232.49,2580.16,2183.59,2533.32,2139.03z"/>
			<path d="M2560.23,2125.57c-68.18-64.74,70.76-135.04,142.46-72.15C2770.16,2117.64,2631.48,2188.11,2560.23,2125.57z
				 M2680.69,2064.38c-49.63-43.53-146.09,5.18-98.79,50.04C2631.32,2157.84,2727.53,2108.94,2680.69,2064.38z"/>
			<path d="M2833.27,2050.86l-104.25-5.86l53.89,33.12c10.34,6.1-4.78,13.84-10.23,18.33l-121.17-74.47
				c-3.46-2.13-3.73-5.76-0.6-8.12c4.18-2.86,10.85-10.37,17.74-5.97c0,0,55.63,34.19,55.63,34.19
				c0.47-5.32-27.24-67.81-16.97-70.67c4.4-3.71,14.66-12.21,19.26-3.72c0,0,18.93,60.47,18.93,60.47l109.85,6.07L2833.27,2050.86z"
				/>
			<path d="M2795.81,1953.27l28.97,26.45l52.78-26.74l16.55,15.11l-52.78,26.74l28.97,26.45l61.12-30.96l16.55,15.11l-83.34,42.21
				l-107.59-98.24l83.34-42.21l16.55,15.11L2795.81,1953.27z"/>
			<path d="M3019.83,1894.33c50.53,45.5-2.97,80.35-60.75,105.49l-91.25-83.32c-7.88-7.2-5.69-17.38,4.89-22.74
				C2918.08,1865.02,2981.31,1856.52,3019.83,1894.33z M2997.21,1905.74c-28.41-27.38-72.46-18.72-104.87,1.57l72.42,66.13
				C3002.51,1958.2,3027.62,1932.07,2997.21,1905.74z"/>
		</g>
		<polygon class="st7" points="2335.48,2298.04 2366.04,2282.57 2392.11,2306.37 2372.58,2308.72 2361.43,2321.73 		"/>
	</g>
</g>
<g id="Layer_11">
	<path class="st8" d="M3946.49,3000.58L3104,3478.89c0,0-47.89,64.89-16.19,98.75c31.69,33.86,29.69,63.63,91.19,44.75
		s756.5-430.88,756.5-430.88S3995.47,3008.66,3946.49,3000.58z"/>
</g>
<g id="Layer_8">
	<path class="st9" d="M1818.05,2512.15l-180,156c0,0-50.03,58.98-26.55,241.35c13,101,415,291,415,291l791,441
		c6.57,3.79,125.64,71.25,131.27,76.33c20.43,18.42,72.76,39.08,201.2-28.64c135.39-71.38,666.32-340.84,817.48-451.75
		c29.51-21.65,76.16-39.41,64.06-73.95l-81-59"/>
	<line class="st10" x1="1697.13" y1="2691.03" x2="2341.5" y2="3057.5"/>
	<path class="st9" d="M2395.5,3100.5l515.9,291.43c0,0,97.39,65.57,206.53,0c115.57-69.43,844.57-453.43,844.57-453.43"/>
	<path class="st9" d="M3962.5,3007.06c0,0,69.93-27.56,53.46-68.56s-141.46-79-141.46-79"/>
	<path class="st11" d="M3001,3493v157.99c0,15.43,4.36,30.54,12.57,43.6L3022,3708"/>
	<path class="st11" d="M3950.05,3057.5c0,0-210.05,124.5-295.05,158.5"/>
	<line class="st12" x1="3355.5" y1="3386.48" x2="3440" y2="3330"/>
	<path d="M2727.8,3429.74c0.7-5.21,1.09-10.45,1.12-15.71c0.11-19.35,4.13-69.78,45.07-37.03c27.74,22.19,29.62,46.54,25.8,63.82
		c-3.87,17.51-4.21,35.56-0.85,53.18c4.96,26.03,3.86,60.87-33.84,69.61C2711.88,3575.94,2723.42,3462.45,2727.8,3429.74z"/>
</g>
<g id="Layer_9">
	<path class="st13" d="M3171.76,3513.75l85.44,91.35l60.21,64.38c7.23,7.73,19.58,7.41,26.4-0.68L3390,3614l94.82-29.29
		c13.45-4.16,18.4-20.62,9.47-31.5l-56.8-69.2l-49.6-71.93l-0.39-0.57c-14.09-10.86-10-54-69.4-17.88l-142.95,92.54
		C3165.67,3492.29,3164.05,3505.5,3171.76,3513.75z"/>
</g>
<g id="Layer_6">
</g>
<g id="Layer_5">
	<path d="M4075.33,2501.09c5.02-11.25-7.16-22.41-17.93-16.44L3819,2617l-415.7,215.84c-0.2,0.1-0.4,0.21-0.59,0.33l-190.13,111.9
		c-0.99,0.58-2.06,1.02-3.17,1.32c-9.51,2.55-58.49,18.69-59.41,80.61c-0.75,50.76,11.02,105.44,31,120
		c18.19,13.26,695.92-389.65,714.61-400.77c0.27-0.16,0.53-0.3,0.81-0.44l166.35-83.18c0.82-0.41,1.59-0.9,2.3-1.47L4098,2634
		c-1-12-8.85,7.26-14-15l-8-13c-2.57-0.5-4.19-4.11-6-6c-24.07-25.17-14.5-54.52-0.18-86.57L4075.33,2501.09z"/>
	<path d="M4078.83,2482.7l-30.38,8.3c-2.83,0.77-3.91,4.22-2.02,6.46l15.19,18.12c1.8,2.14,5.18,1.85,6.57-0.58l15.19-26.42
		C4085.17,2485.47,4082.3,2481.75,4078.83,2482.7z"/>
</g>
<g id="Layer_10">
	<line class="st14" x1="3600.5" y1="2818.5" x2="3671.5" y2="2775.5"/>
	<path class="st15" d="M3708.61,2743.91l134.14-55.42c14.47-5.98,28.34-13.29,41.44-21.86l135.38-88.46"/>
	<path class="st16" d="M3200.5,3108.5c0,0,222-113,230-118s323-205,323-205"/>
</g>
<g id="Layer_4">
	<path d="M2048.46,2357.2l16.71,10.62c7.97,5.07,12.47,13.98,11.73,23.23L2073,2515l-1,46c-0.69,26.03-40.72,35.19-50.98,20.63
		l-26-16c-8.89-9.63-20.2-30.11-18.79-39.54l11.92-27.05c0.02-0.05-0.96-40.1-0.94-40.15c2.73-6.23,3.87-13.04,3.54-19.84L1987,2380
		C1990.59,2353.69,2014,2350,2048.46,2357.2z"/>
</g>
<g id="Layer_3">
	<path class="st17" d="M1789.5,2163.5l1253.24,729.86c19.73,11.49,42.02,16.96,64.26,16.24c14.5-0.47,28.98-3.57,42.7-9.34
		l153.8-64.76"/>
	<line class="st18" x1="3355.5" y1="2800.5" x2="4045.5" y2="2444.5"/>
	<path class="st19" d="M3071.61,3237.99l5.81-11.67c11.56-23.23,17.58-48.83,17.58-74.78v-37.37c0-6.37-0.42-12.73-1.25-19.04
		l-6.78-51.49c-2.42-18.39-1.85-37.06,1.7-55.27l15.34-78.77"/>
</g>
<g id="Layer_2">
</g>
</svg>
